<svg width="115" height="57" viewBox="0 0 115 57" fill="none" xmlns="http://www.w3.org/2000/svg">
    <g clip-path="url(#clip0_157_236)">
        <path d="M0 28.4849H14.7967V34.5097H6.6031V39.0884H14.4593V45.1132H6.6513V55.3793H0V28.4849Z" fill="black"/>
        <path d="M17.544 35.1844H23.2795V37.3051H23.3759C23.9061 36.3411 24.9665 34.4614 28.4849 34.4614V40.5343C25.6412 40.6307 23.6651 41.2091 23.6651 44.2456V55.3311H17.544V35.1844Z" fill="black"/>
        <path d="M49.5955 49.0654C48.5834 51.3307 47.1857 53.0658 45.4505 54.2226C43.7636 55.4275 41.7393 56.0541 39.6668 56.0541C33.8349 56.0541 28.8705 51.3789 28.8705 45.3542C28.8705 39.715 33.3529 34.5096 39.5222 34.5096C45.7397 34.5096 50.2703 39.3776 50.2703 45.4987C50.2703 46.3181 50.1739 46.6073 50.1257 47.0893H34.8952C35.2808 49.4992 37.2569 50.8969 39.6668 50.8969C41.5465 50.8969 42.5105 50.0775 43.378 49.0172H49.5955V49.0654ZM44.1974 43.0407C43.9564 41.8357 42.7515 39.5704 39.5704 39.5704C36.3893 39.5704 35.2326 41.8357 34.9434 43.0407H44.1974Z" fill="black"/>
        <path d="M82.9002 49.1136C81.8881 51.3789 80.4903 53.114 78.7552 54.2708C77.0683 55.4757 75.044 56.1023 72.9715 56.1023C67.1395 56.1023 62.1752 51.4271 62.1752 45.4024C62.1752 39.7632 66.6576 34.5579 72.8269 34.5579C78.9962 34.5579 83.575 39.4258 83.575 45.547C83.575 46.3663 83.4786 46.6555 83.4304 47.1375H68.1999C68.5855 49.5474 70.5616 50.9451 72.9715 50.9451C74.8512 50.9451 75.8152 50.1258 76.6827 49.0654H82.9002V49.1136ZM77.5021 43.0889C77.2611 41.8839 76.0561 39.6186 72.8751 39.6186C69.7422 39.6186 68.5373 41.8839 68.2481 43.0889H77.5021Z" fill="black"/>
        <path d="M60.8257 51.1379C58.705 51.1379 58.3194 50.3185 58.3194 48.246V39.7632H61.5486V35.1844H58.3194V28.4849H52.2465V35.1844V39.7632V48.1014C52.2465 53.4032 53.6924 55.7167 60.1991 55.7167H61.3076V51.1379H60.8257Z" fill="black"/>
        <path d="M110.18 28.726C116.301 22.6048 116.157 12.5315 109.698 6.60316C103.818 1.20501 94.516 1.3014 88.7322 6.79596C83.2859 11.9531 82.5147 20.0986 86.3705 26.1233C86.5151 26.3643 86.5633 26.6535 86.4187 26.9426L84.0088 31.9552C83.6232 32.7746 84.4908 33.6903 85.3102 33.2566L90.2745 30.8467C90.5155 30.7021 90.8529 30.7503 91.0939 30.8949C97.0704 34.6061 105.023 33.9313 110.18 28.726Z" fill="black"/>
        <path d="M101.987 21.0625V25.2557C101.987 26.2196 101.167 27.039 100.203 27.039H98.4682C97.5043 27.039 96.6849 26.2196 96.6849 25.2557V21.0625C96.6849 20.6769 96.3957 20.3877 96.0101 20.3877H91.5759C90.612 20.3877 89.7926 19.5683 89.7926 18.6044V17.1584C89.7926 16.1945 90.612 15.3751 91.5759 15.3751H95.9619C96.3475 15.3751 96.6367 15.0859 96.6367 14.7003V10.5071C96.6367 9.54318 97.4561 8.72382 98.42 8.72382H100.155C101.119 8.72382 101.938 9.54318 101.938 10.5071V14.7003C101.938 15.0859 102.228 15.3751 102.613 15.3751H107.047C108.011 15.3751 108.831 16.1945 108.831 17.1584V18.6044C108.831 19.5683 108.011 20.3877 107.047 20.3877H102.661C102.324 20.3877 101.987 20.6769 101.987 21.0625Z" fill="white"/>
        </g>
    <defs>
        <clipPath id="clip0_157_236">
            <rect width="115" height="56.0541" fill="white"/>
            </clipPath>
        </defs>
    </svg>

