<svg width="22" height="18" viewBox="0 0 22 18" fill="none" xmlns="http://www.w3.org/2000/svg">
<path d="M15.2222 17V15.2222C15.2222 13.2585 13.6303 11.6666 11.6667 11.6666H4.55556C2.59188 11.6666 1 13.2585 1 15.2222V17" stroke="#667085" stroke-width="1.5" stroke-linecap="round" stroke-linejoin="round"/>
<path fill-rule="evenodd" clip-rule="evenodd" d="M8.11116 8.11111C10.0748 8.11111 11.6667 6.51923 11.6667 4.55556C11.6667 2.59188 10.0748 1 8.11116 1C6.14748 1 4.5556 2.59188 4.5556 4.55556C4.5556 6.51923 6.14748 8.11111 8.11116 8.11111Z" stroke="#667085" stroke-width="1.5" stroke-linecap="round" stroke-linejoin="round"/>
<path opacity="0.6" d="M20.5555 17V15.2222C20.5543 13.6019 19.4577 12.1873 17.8888 11.7822" stroke="#667085" stroke-width="1.5" stroke-linecap="round" stroke-linejoin="round"/>
<path opacity="0.6" d="M14.3334 1.11559C15.9067 1.5184 17.0071 2.93602 17.0071 4.56003C17.0071 6.18404 15.9067 7.60166 14.3334 8.00447" stroke="#667085" stroke-width="1.5" stroke-linecap="round" stroke-linejoin="round"/>
</svg>

