<svg width="25" height="25" viewBox="0 0 25 25" fill="none" xmlns="http://www.w3.org/2000/svg">
<path d="M21.8438 6.45996L13.25 1.75781C13.0204 1.63094 12.7623 1.56439 12.5 1.56439C12.2377 1.56439 11.9796 1.63094 11.75 1.75781L3.15625 6.46192C2.91083 6.5962 2.70596 6.79391 2.56304 7.0344C2.42012 7.27489 2.34439 7.54935 2.34375 7.8291V17.1689C2.34439 17.4487 2.42012 17.7232 2.56304 17.9637C2.70596 18.2041 2.91083 18.4019 3.15625 18.5361L11.75 23.2402C11.9796 23.3671 12.2377 23.4337 12.5 23.4337C12.7623 23.4337 13.0204 23.3671 13.25 23.2402L21.8438 18.5361C22.0892 18.4019 22.294 18.2041 22.437 17.9637C22.5799 17.7232 22.6556 17.4487 22.6562 17.1689V7.83008C22.6561 7.54983 22.5807 7.27476 22.4377 7.03371C22.2948 6.79265 22.0896 6.59448 21.8438 6.45996ZM12.5 3.125L20.3457 7.42188L17.4385 9.01368L9.5918 4.7168L12.5 3.125ZM12.5 11.7188L4.6543 7.42188L7.96484 5.60938L15.8105 9.90625L12.5 11.7188ZM3.90625 8.78907L11.7188 13.0645V21.4424L3.90625 17.1699V8.78907ZM21.0938 17.166L13.2812 21.4424V13.0684L16.4062 11.3584V14.8438C16.4062 15.051 16.4886 15.2497 16.6351 15.3962C16.7816 15.5427 16.9803 15.625 17.1875 15.625C17.3947 15.625 17.5934 15.5427 17.7399 15.3962C17.8864 15.2497 17.9688 15.051 17.9688 14.8438V10.5029L21.0938 8.78907V17.165V17.166Z" fill="#667085"/>
</svg>

