<svg width="20" height="20" viewBox="0 0 20 20" fill="none" xmlns="http://www.w3.org/2000/svg">
<path opacity="0.7" d="M10.1633 18.3062C14.9423 18.3062 18.8164 14.432 18.8164 9.65308C18.8164 4.87411 14.9423 1 10.1633 1C5.38437 1 1.51025 4.87411 1.51025 9.65308C1.51025 14.432 5.38437 18.3062 10.1633 18.3062Z" stroke="#667085" stroke-width="1.5" stroke-linecap="round" stroke-linejoin="round"/>
<path d="M7.64539 7.05712C7.84882 6.47881 8.25037 5.99115 8.7789 5.68053C9.30743 5.36991 9.92884 5.25636 10.5331 5.36C11.1373 5.46364 11.6853 5.77778 12.0802 6.24678C12.475 6.71578 12.691 7.30938 12.6901 7.92243C12.6901 9.65304 10.0942 10.5184 10.0942 10.5184" stroke="#667085" stroke-width="1.5" stroke-linecap="round" stroke-linejoin="round"/>
<path d="M10.1633 13.9796H10.1722" stroke="#667085" stroke-width="1.5" stroke-linecap="round" stroke-linejoin="round"/>
</svg>

